<svg height="512pt" viewBox="0 0 512 512.00076" width="512pt" xmlns="http://www.w3.org/2000/svg"><path d="m309.03125 205.160156 10.609375 10.605469-95.460937 95.460937-5.675782-5.679687-66.839844 13.375-107.046874 154.152344 38.925781 38.925781 154.152343-107.046875 13.371094-66.839844-5.675781-5.675781 95.460937-95.457031 10.605469 10.605469 160.542969-157.585938-42.425781-42.425781zm0 0"/><path d="m169.703125 0 85.851563 85.851562-169.703126 169.703126-85.851562-85.851563zm0 0"/><path d="m170.703125 213.132812c3.082031 3.078126 57.578125 57.574219 54.578125 54.574219l42.417969-42.433593c-3.328125-3.328126-58.054688-58.050782-54.566407-54.566407zm0 0"/><path d="m425.261719 467.695312-136.347657-136.351562 42.421876-42.425781 136.351562 136.351562zm0 0"/></svg>