<svg id="Capa_1" enable-background="new 0 0 512 512" height="512" viewBox="0 0 512 512" width="512" xmlns="http://www.w3.org/2000/svg"><g><path d="m423.606 0-128.784 125.973-14.851 43.19-118.005 118.004-24.161-24.161-114.777 114.777c-14.85 14.85-23.028 34.593-23.028 55.594 0 21.002 8.178 40.745 23.028 55.595s34.594 23.028 55.595 23.028c21 0 40.745-8.178 55.594-23.028l114.777-114.776-23.389-23.389 118.005-118.005 43.236-14.866 125.154-129.541zm-310.602 467.759c-9.184 9.183-21.394 14.241-34.381 14.241-12.988 0-25.198-5.058-34.382-14.241-9.183-9.184-14.241-21.394-14.241-34.382 0-12.987 5.058-25.197 14.241-34.381l48.051-48.051 68.763 68.763zm69.264-69.264-68.763-68.763 24.3-24.301 68.763 68.764zm287.668-309.739-20.21 20.919-47.144-47.143 20.792-20.338zm-99.658 103.152-42.978 14.779-122.44 122.44-21.213-21.214 122.44-122.439 14.794-43.024 60.254-58.939 47.743 47.743z"/></g></svg>